<svg width="36" height="16" viewBox="0 0 36 16" fill="none" xmlns="http://www.w3.org/2000/svg">
<path d="M2 5.51007H5.6245H17.1986L23.747 1H9.13223L2 5.51007Z" stroke="#1D1D1B" stroke-miterlimit="10"/>
<path d="M5.62451 5.51007L12.1706 1H14.0412L8.07901 5.51007H5.62451Z" fill="#1D1D1B"/>
<path d="M10.8633 5.69074L17.4094 1.18066H19.2823L13.3201 5.69074H10.8633Z" fill="#1D1D1B"/>
<path d="M5.27637 3.43872L7.18593 2.22852L20.9993 2.83362L19.2821 4.07389L5.27637 3.43872Z" fill="#1D1D1B"/>
<path d="M12.2529 14.8196H15.8774H27.4539L33.9999 10.3096H19.3852L12.2529 14.8196Z" stroke="#1D1D1B" stroke-miterlimit="10"/>
<path d="M15.5754 15L22.3848 10.3096H24.3333L18.1284 15H15.5754Z" fill="#1D1D1B"/>
<path d="M21.1184 15.0003L27.6645 10.4902H29.5351L23.5729 15.0003H21.1184Z" fill="#1D1D1B"/>
<path d="M15.2134 12.846L17.2008 11.5869L31.5706 12.2146L29.7847 13.5075L15.2134 12.846Z" fill="#1D1D1B"/>
<path d="M17.9702 4.97664L23.573 15.0003L26.3182 14.8199L20.1637 3.43945L17.9702 4.97664Z" stroke="#1D1D1B" stroke-miterlimit="10"/>
<path d="M19.2822 7.32172L21.1185 5.69434" stroke="#1D1D1B" stroke-miterlimit="10"/>
<path d="M20.2004 8.96371L22.1443 7.32129" stroke="#1D1D1B" stroke-miterlimit="10"/>
<path d="M21.3496 11.024L23.392 10.0205" stroke="#1D1D1B" stroke-miterlimit="10"/>
</svg>
