<svg width="414" height="349" viewBox="0 0 414 349" fill="none" xmlns="http://www.w3.org/2000/svg">
<path d="M419.953 343.589V125H3.05176e-05V300.137C4.00912 307.527 16.5375 324.967 34.5785 335.608C57.1296 348.909 95.7172 283.732 122.277 300.137C148.838 316.542 171.389 213.234 220.5 195.498C269.612 177.763 276.628 206.139 293.666 241.167C310.705 276.194 337.766 231.856 361.821 241.167C385.876 250.478 346.787 282.402 384.372 322.306C414.44 354.23 420.621 349.796 419.953 343.589Z" stroke="#2E3192"/>
<path d="M415.953 314.589V96H-3.99997V271.137C0.00912476 278.527 12.5375 295.967 30.5785 306.608C53.1296 319.909 91.7172 254.732 118.277 271.137C144.838 287.542 167.389 184.234 216.5 166.498C265.612 148.763 272.628 177.139 289.666 212.167C306.705 247.194 333.766 202.856 357.821 212.167C381.876 221.478 342.787 253.402 380.372 293.306C410.44 325.23 416.621 320.796 415.953 314.589Z" stroke="#C5227B"/>
<path d="M-2.95293 343.589V125H417V300.137C412.991 307.527 400.462 324.967 382.422 335.608C359.87 348.909 321.283 283.732 294.723 300.137C268.162 316.542 245.611 213.234 196.5 195.498C147.388 177.763 140.372 206.139 123.334 241.167C106.295 276.194 79.2336 231.856 55.179 241.167C31.1244 250.478 70.2131 282.402 32.6278 322.306C2.55958 354.23 -3.62111 349.796 -2.95293 343.589Z" fill="#54C5D0"/>
<rect x="-3" width="420" height="162" fill="#54C5D0"/>
</svg>
