<svg width="232" height="276" viewBox="0 0 232 276" fill="none" xmlns="http://www.w3.org/2000/svg">
<path d="M139.312 124.988C122.443 127.658 136.977 145.816 146.353 154.561C134.178 175.128 125.592 164.312 117.796 161.36C110 158.408 101.446 142.176 90.1254 114.824C78.8044 87.4722 100.572 91.5441 99.5436 84.6979C98.5147 77.8517 169.92 79.8412 185.052 76.2385C200.184 72.6358 193.034 47.656 192.245 27.1714C191.455 6.68677 177.001 3.03691 147.176 16.6281C117.35 30.2193 73.2011 33.6394 50.5984 33.1314C27.9958 32.6234 14.3842 64.8298 30.8696 74.4863C47.3549 84.1428 50.8526 113.478 56.5622 122.815C62.2718 132.153 59.4632 162.268 47.8012 205.187C36.1392 248.107 57.9292 247.727 63.3687 245.831C68.8082 243.935 64.2635 234.44 68.7006 233.384C73.1378 232.327 89.7084 262.035 101.784 262.766C113.86 263.496 125.303 260.051 140.051 237.67C154.8 215.289 197.058 221.093 198.188 178.878C199.318 136.663 160.398 121.65 139.312 124.988Z" stroke="black" stroke-opacity="0.2"/>
<path d="M151.817 184.043C157.051 183.598 166.775 181.106 163.805 174.7C163.181 173.355 162.19 171.782 161.019 170.076M161.019 170.076C155.219 161.627 144.992 149.919 152.999 146.513C162.623 142.42 182.898 141.077 185.309 158.286C187.72 175.495 185.486 191.406 174.233 198.772C162.979 206.137 134.36 233.137 133.115 237.519C131.87 241.9 121.8 257.274 109.981 257.205C98.1614 257.135 90.7583 248.805 82.6841 237.149C74.61 225.494 66.8634 210.156 68.884 166.54C70.9046 122.923 64.7932 94.2189 60.2112 87.6199C55.6291 81.0209 35.7284 72.3016 40.4781 59.8762C45.2278 47.4508 88.8826 44.1464 103.037 41.3772C117.192 38.608 154.646 21.4001 164.106 19.1478C173.566 16.8955 185.055 44.9197 177.919 54.9094C171.839 69.3338 169.152 70.6945 164.03 68.91C158.908 67.1256 131.99 48.6622 113.498 55.4681C95.005 62.274 64.3366 65.4904 66.719 75.4969C69.1014 85.5033 78.0653 127.706 77.5184 135.527C76.9715 143.347 75.004 199.327 95.6299 211.598C116.256 223.87 152.65 209.798 156.338 203.032C160.027 196.266 169.142 181.84 161.019 170.076Z" stroke="#54C5D0" stroke-opacity="0.5"/>
</svg>
