<svg width="389" height="290" viewBox="0 0 389 290" fill="none" xmlns="http://www.w3.org/2000/svg">
<path d="M174.502 91.4017C180.503 113.658 202.789 91.5502 213.181 77.7143C242.528 91.1066 229.242 104.18 226.399 115.065C223.555 125.951 202.996 139.756 167.91 158.87C132.824 177.983 135.17 148.185 126.129 150.547C117.089 152.909 109.525 56.7941 102.522 37.0024C95.5183 17.2108 63.0184 30.3858 35.64 34.381C8.26154 38.3762 5.43464 58.2976 27.9491 96.3774C50.4636 134.457 61.3806 193.218 63.938 223.625C66.4955 254.032 111.669 267.684 122.266 244.175C132.863 220.667 171.731 211.769 183.444 202.768C195.158 193.768 235.976 193.221 295.249 202.721C354.521 212.222 350.888 183.033 347.564 176.004C344.239 168.976 332.148 176.436 330.095 170.632C328.041 164.829 365.536 138.332 364.786 122.021C364.036 105.71 357.772 90.847 325.622 74.2609C293.471 57.6748 295.205 0.130713 238.387 4.66409C181.57 9.19747 167.001 63.5814 174.502 91.4017Z" stroke="black" stroke-opacity="0.2"/>
<path d="M251.964 66.1554C250.617 59.1955 245.88 46.5019 237.708 51.4065C235.993 52.4362 234.024 53.991 231.902 55.807M231.902 55.807C221.394 64.8024 207.147 80.2062 201.428 69.948C194.555 57.6188 189.848 30.6007 212.597 24.8987C235.347 19.1967 257.022 19.914 268.519 33.9616C280.017 48.0092 320.354 82.5484 326.413 83.5914C332.472 84.6345 354.548 95.9451 356.148 111.818C357.748 127.69 347.629 138.819 333.144 151.326C318.66 163.832 299.185 176.426 240.36 179.965C181.534 183.504 143.887 195.82 135.687 202.915C127.488 210.01 118.638 237.967 101.282 233.374C83.9252 228.78 73.2344 170.666 67.4894 152.067C61.7445 133.467 33.2829 85.668 28.9045 73.2947C24.526 60.9215 60.4896 41.4856 74.9191 49.6311C95.1489 55.7242 97.3601 59.1352 95.6993 66.2649C94.0385 73.3946 73.117 112.166 84.9012 136.009C96.6853 159.852 105.397 200.55 118.485 195.918C131.573 191.287 186.927 173.209 197.501 172.822C208.074 172.435 283.485 167.053 296.998 137.613C310.511 108.173 286.41 61.3468 276.802 57.3664C267.193 53.3859 246.526 43.2208 231.902 55.807Z" stroke="#C5227B" stroke-opacity="0.5"/>
</svg>
