<svg width="266" height="229" viewBox="0 0 266 229" fill="none" xmlns="http://www.w3.org/2000/svg">
<path d="M137.539 136.072C141.618 119.488 119.246 125.845 107.55 131.096C93.3127 111.899 106.612 108.178 112.355 102.136C118.098 96.0949 136.377 94.5045 165.979 94.6745C195.581 94.8445 183.387 113.331 190.097 115.037C196.807 116.743 167.286 181.791 164.74 197.136C162.194 212.481 187.992 215.576 207.18 222.791C226.368 230.006 235.337 218.098 234.373 185.336C233.41 152.574 247.375 110.552 256.607 89.9148C265.839 69.2774 241.43 44.243 226.137 55.6946C210.844 67.1461 182.448 58.9961 171.627 60.6385C160.806 62.281 134.136 48.0155 99.0956 20.6242C64.0552 -6.76698 55.957 13.4659 55.5956 19.215C55.2342 24.9641 65.7482 24.4563 65.0015 28.956C64.2549 33.4556 30.4461 37.2112 25.0904 48.0592C19.7347 58.9072 18.4739 70.7904 33.3856 93.0632C48.2973 115.336 26.5625 152.037 65.0371 169.447C103.512 186.857 132.44 156.803 137.539 136.072Z" stroke="black" stroke-opacity="0.2"/>
<path d="M78.2556 124.702C76.6366 129.698 75.1626 139.628 82.2192 139.374C83.7008 139.32 85.5348 139.017 87.5611 138.599M87.5611 138.599C97.5985 136.529 112.356 131.641 112.391 140.342C112.433 150.801 105.809 170.01 89.0116 165.56C72.214 161.11 58.4132 152.882 55.9874 139.653C53.5617 126.424 39.7707 89.5746 36.2145 86.728C32.6583 83.8814 22.3912 68.6385 27.0383 57.7706C31.6853 46.9028 42.2345 43.3089 56.1086 40.3855C69.9827 37.4621 87.1243 36.2686 126.545 55.0428C165.967 73.8171 194.795 79.3134 202.654 77.6484C210.513 75.9835 226.267 61.0204 235.879 70.2163C245.49 79.4122 231.61 120.933 228.674 135.054C225.739 149.175 227.078 190.371 225.486 199.964C223.894 209.558 193.607 209.283 187.166 198.831C176.228 187.634 176.015 184.629 179.646 180.6C183.277 176.571 210.733 158.918 211.63 139.233C212.526 119.548 221.453 90.0315 211.305 88.3477C201.158 86.6638 158.781 78.5629 151.785 75.0267C144.788 71.4904 93.9503 47.9713 74.6414 62.2257C55.3325 76.48 54.1923 115.483 58.9986 121.506C63.805 127.53 73.5683 141.525 87.5611 138.599Z" stroke="#2E3192" stroke-opacity="0.5"/>
</svg>
